<?xml version="1.0" encoding="UTF-8"?>
<svg width="24px" height="24px" viewBox="0 0 24 24" version="1.1" xmlns="http://www.w3.org/2000/svg" xmlns:xlink="http://www.w3.org/1999/xlink">
    <!-- Generator: Sketch 52.5 (67469) - http://www.bohemiancoding.com/sketch -->
    <title>mendeley-merge-24</title>
    <desc>Created with Sketch.</desc>
    <g id="mendeley-merge-24" stroke="none" stroke-width="1" fill="none" fill-rule="evenodd">
        <g id="merge" transform="translate(4.000000, 4.000000)" fill="#000000" fill-rule="nonzero">
            <path d="M0,0 L0,4 L6,4 L7,4 L8,4 L8,12 L7,12 L6,12 L0,12 L0,16 L9,16 L9,12 L9,10 L16,10 L16,6 L9,6 L9,4 L9,0 L0,0 Z M1,1 L8,1 L8,3 L1,3 L1,1 Z M4.5,5 C4.223,5 4,5.223 4,5.5 C4,5.777 4.223,6 4.5,6 C4.777,6 5,5.777 5,5.5 C5,5.223 4.777,5 4.5,5 Z M9,7 L10,7 L11,7 L15,7 L15,9 L11,9 L10,9 L9,9 L9,7 Z M4.5,10 C4.223,10 4,10.223 4,10.5 C4,10.777 4.223,11 4.5,11 C4.777,11 5,10.777 5,10.5 C5,10.223 4.777,10 4.5,10 Z M1,13 L8,13 L8,15 L1,15 L1,13 Z" id="Shape"></path>
        </g>
    </g>
</svg>