<?xml version="1.0" encoding="UTF-8"?>
<svg width="24px" height="24px" viewBox="0 0 24 24" version="1.1" xmlns="http://www.w3.org/2000/svg" xmlns:xlink="http://www.w3.org/1999/xlink">
    <!-- Generator: Sketch 52.5 (67469) - http://www.bohemiancoding.com/sketch -->
    <title>mendeley-prop-24</title>
    <desc>Created with Sketch.</desc>
    <g id="mendeley-prop-24" stroke="none" stroke-width="1" fill="none" fill-rule="evenodd">
        <g id="document-properties" transform="translate(4.000000, 4.000000)" fill="#000000" fill-rule="nonzero">
            <path d="M0,0 L0,16 L1,16 L16,16 L16,15 L16,0 L15,0 L1,0 L0,0 Z M1,4 L15,4 L15,15 L1,15 L1,4 Z M2,5 L2,14 L7,14 L7,5 L2,5 Z M8,6 L8,7 L14,7 L14,6 L8,6 Z M8,9 L8,10 L12,10 L12,9 L8,9 Z M8,12 L8,13 L10,13 L10,12 L8,12 Z" id="Shape"></path>
        </g>
    </g>
</svg>