<?xml version="1.0" encoding="UTF-8"?>
<svg width="16px" height="16px" viewBox="0 0 16 16" version="1.1" xmlns="http://www.w3.org/2000/svg" xmlns:xlink="http://www.w3.org/1999/xlink">
    <!-- Generator: Sketch 52.5 (67469) - http://www.bohemiancoding.com/sketch -->
    <title>mendeley-prop-16</title>
    <desc>Created with Sketch.</desc>
    <g id="mendeley-prop-16" stroke="none" stroke-width="1" fill="none" fill-rule="evenodd">
        <g id="document-properties" transform="translate(2.000000, 2.000000)" fill="#000000" fill-rule="nonzero">
            <path d="M0,0 L0,3 L0,12 L1,12 L12,12 L12,11 L12,0 L1,0 L0,0 Z M1,3 L11,3 L11,11 L1,11 L1,3 Z M2,4 L2,10 L4,10 L4,4 L2,4 Z M5,5 L5,6 L10,6 L10,5 L5,5 Z M5,8 L5,9 L10,9 L10,8 L5,8 Z" id="Shape"></path>
        </g>
    </g>
</svg>