<?xml version="1.0" encoding="UTF-8"?>
<svg width="24px" height="24px" viewBox="0 0 24 24" version="1.1" xmlns="http://www.w3.org/2000/svg" xmlns:xlink="http://www.w3.org/1999/xlink">
    <!-- Generator: Sketch 52.5 (67469) - http://www.bohemiancoding.com/sketch -->
    <title>mendeley-refresh-24</title>
    <desc>Created with Sketch.</desc>
    <g id="mendeley-refresh-24" stroke="none" stroke-width="1" fill="none" fill-rule="evenodd">
        <g id="view-refresh" transform="translate(4.000000, 4.000000)" fill="#000000" fill-rule="nonzero">
            <path d="M8,0 C6.558286,0 5.2107109,0.3829219 4.0449219,1.0449219 L4.7832031,1.7832031 L4.7851562,1.78125 L7.564453,4.5585938 L8.271484,3.8515625 L5.7890625,1.3710938 C6.484685,1.1384172 7.223912,1 8,1 C11.87797,1 15,4.122 15,8 C15,9.1625 14.714172,10.253897 14.216797,11.216797 L14.955078,11.955078 C15.617129,10.789278 16,9.4417 16,8 C16,3.568 12.431966,0 8,0 Z M1.0449219,4.0449219 C0.3828709,5.2107219 0,6.5583 0,8 C0,12.432 3.568034,16 8,16 C9.441714,16 10.789289,15.617078 11.955078,14.955078 L11.271484,14.271484 L11.273438,14.269531 L8.445312,11.441406 L7.738281,12.148438 L10.216797,14.626953 C9.519451,14.860921 8.778264,15 8,15 C4.12203,15 1,11.878 1,8 C1,6.8375 1.2858291,5.7461031 1.7832031,4.7832031 L1.0449219,4.0449219 Z" id="Shape"></path>
        </g>
        <g id="Group" transform="translate(12.000000, 11.500000) scale(-1, 1) rotate(-180.000000) translate(-12.000000, -11.500000) translate(6.000000, 8.000000)" fill="#A22835" fill-rule="nonzero">
            <path d="M3.32039032,6.98667305 C3.04635308,6.94926322 2.72541848,6.81723608 2.49448271,6.64381388 C2.36872924,6.55112491 2.18285411,6.3501917 2.09089613,6.21225098 C2.00077485,6.07238192 1.8882457,5.81218434 1.84502178,5.63876213 C1.76800237,5.32547086 1.77743082,4.82885857 1.86571539,4.5489919 C1.91457189,4.39729568 1.9727344,4.0386241 1.99710143,3.73317476 C2.04032536,3.18732547 1.94273479,2.80898481 1.71179902,2.63363426 C1.56914782,2.52333311 1.4528228,2.4917083 1.13372492,2.47602446 C0.80519858,2.46021206 0.717036463,2.43462939 0.512426882,2.29668867 C0.352877939,2.18831586 0.163329386,1.99316767 0.110799458,1.88479486 C0.0226373402,1.70353073 -0.00185213692,1.57741718 0.000107021246,1.30346408 C0.000107021246,1.12811354 0.0113721807,1.00791356 0.0320657888,0.919209841 C0.167247702,0.375288896 0.623364213,0.00286181595 1.15258181,0.00491871388 C1.46984299,0.00684705568 1.73065592,0.125118686 1.95216324,0.373360555 C2.16056869,0.603861678 2.25999597,0.869972847 2.25999597,1.19907652 C2.25999597,1.41389379 2.23746565,1.53010852 2.14367095,1.77050847 C1.96538756,2.2394812 2.01228491,2.57642679 2.29942402,2.87403421 C2.45334039,3.03370091 2.68415371,3.15981446 2.9657827,3.23669102 C3.21545291,3.30572566 3.68087543,3.32333785 3.94560667,3.27615775 C4.46931414,3.18154045 4.8296768,2.92931334 4.94600181,2.58054058 C5.01726619,2.36970855 4.98726658,2.05243204 4.87841086,1.85342717 C4.72449449,1.57356049 4.68506643,1.18930625 4.782657,0.88977049 C4.85404383,0.673024871 4.93841007,0.535084154 5.10175489,0.371560769 C5.48648457,-0.0107651328 6.10594589,-0.0994688558 6.61459233,0.15481515 C6.74597838,0.219864547 6.80230417,0.265116301 6.93369022,0.405113916 C7.17956457,0.667239846 7.27715514,0.915481714 7.27715514,1.27415329 C7.27715514,1.47521506 7.2227885,1.6860471 7.13070806,1.85355572 C7.02368905,2.04664702 6.99185273,2.35016802 7.05748453,2.56498529 C7.13070806,2.81322716 7.36531725,3.0419285 7.67498669,3.16405681 C7.9602891,3.2783432 8.05041037,3.29415561 8.47273141,3.29209871 C8.82942064,3.29209871 8.87068541,3.28811347 9.04333622,3.23887648 C9.32680192,3.15814323 9.55577853,3.03395802 9.70969489,2.87429132 C9.99316059,2.58066914 10.0438538,2.23780997 9.87108055,1.78644943 C9.77165327,1.53229398 9.74912295,1.42584951 9.74912295,1.21501747 C9.74912295,0.878071883 9.84291765,0.614017612 10.0438538,0.38544483 C10.4756033,-0.105253881 11.151268,-0.130836549 11.6486492,0.328237356 C11.8663607,0.527242231 11.9790123,0.813022486 11.99591,1.20511865 C12.0053385,1.40618042 11.9997059,1.46724458 11.9659104,1.60904198 C11.8683199,2.02093579 11.6431391,2.28293317 11.2657563,2.42884436 C11.2132263,2.45057035 11.0780444,2.46625419 10.8847,2.47615301 C10.6500908,2.48798018 10.5618062,2.49980734 10.4792767,2.53336049 C10.1901784,2.64957522 10.0569557,2.86053581 10.0100583,3.27628631 C9.97809956,3.56990849 10.0418946,4.21423176 10.1339751,4.51775276 C10.2315656,4.8390145 10.2428308,5.31582915 10.1639747,5.635034 C10.0363845,6.1454018 9.71544992,6.56320919 9.27059857,6.79769555 C8.68689188,7.1031449 8.03559424,7.05776458 7.49682574,6.67351034 C7.37486815,6.58480662 7.15899341,6.36021908 7.081974,6.23796221 C6.98622015,6.09012267 6.59769459,5.64878951 6.47941042,5.56008578 C6.30675961,5.42613031 6.19031214,5.38666358 5.97639656,5.3965624 C5.76235853,5.40440432 5.65913538,5.44978463 5.46958683,5.61729326 C5.33636408,5.73350799 5.01530703,6.10207839 4.92898163,6.23809076 C4.85196222,6.35829073 4.63425077,6.58493517 4.51229317,6.6736389 C4.16319568,6.923552 3.71650762,7.04182363 3.32039032,6.98667305 Z M6.30296374,4.9471302 C6.82103862,4.80726114 7.18140128,4.32041912 7.18323799,3.75682908 C7.1850747,3.42978231 7.07438226,3.14194516 6.85667081,2.89961687 C6.69528516,2.72220943 6.58447028,2.64546142 6.39308501,2.57835513 C6.26733155,2.53503172 6.21663833,2.52706124 6.00455946,2.52706124 C5.79248059,2.52706124 5.74178737,2.53490316 5.6160339,2.57835513 C5.42464864,2.64533287 5.31383376,2.72220943 5.15612153,2.89563163 C4.82759519,3.26021679 4.7356372,3.74294502 4.90841046,4.20998941 C5.0379598,4.55876216 5.34762924,4.84852766 5.69672673,4.94700165 C5.83558207,4.98646837 6.15651666,4.98646837 6.30296374,4.9471302 Z" id="Shape"></path>
        </g>
    </g>
</svg>