<?xml version="1.0" encoding="UTF-8"?>
<svg width="16px" height="16px" viewBox="0 0 16 16" version="1.1" xmlns="http://www.w3.org/2000/svg" xmlns:xlink="http://www.w3.org/1999/xlink">
    <!-- Generator: Sketch 52.5 (67469) - http://www.bohemiancoding.com/sketch -->
    <title>mendeley-insert-16</title>
    <desc>Created with Sketch.</desc>
    <g id="mendeley-insert-16" stroke="none" stroke-width="1" fill="none" fill-rule="evenodd">
        <g id="archive-insert" transform="translate(3.000000, 2.000000)" fill="#000000" fill-rule="nonzero">
            <path d="M0,0 L0,1 L0,11 L0,12 L1,12 L5,12 L5,11 L1,11 L1,1 L9,1 L9,6 L10,6 L10,1 L10,0 L9,0 L1,0 L0,0 Z M8,7 L8,9 L6,9 L6,10 L8,10 L8,12 L9,12 L9,10 L11,10 L11,9 L9,9 L9,7 L8,7 Z" id="Shape"></path>
        </g>
        <g id="Group" transform="translate(8.000000, 7.500000) scale(-1, 1) rotate(-180.000000) translate(-8.000000, -7.500000) translate(4.000000, 5.000000)" fill="#A22835" fill-rule="nonzero">
            <path d="M2.21359355,4.99048075 C2.03090205,4.96375944 1.81694565,4.86945435 1.66298847,4.74558134 C1.57915283,4.67937494 1.45523608,4.53585121 1.39393075,4.43732213 C1.3338499,4.33741566 1.25883047,4.15156024 1.23001452,4.02768724 C1.17866825,3.80390776 1.18495388,3.44918469 1.24381026,3.24927993 C1.27638126,3.14092548 1.31515627,2.8847315 1.33140095,2.6665534 C1.3602169,2.27666105 1.29515653,2.00641772 1.14119935,1.88116733 C1.04609855,1.80238079 0.968548534,1.77979165 0.75581661,1.7685889 C0.536799053,1.75729433 0.478024308,1.73902099 0.341617921,1.64049191 C0.235251959,1.56308276 0.108886257,1.42369119 0.0738663051,1.34628204 C0.0150915601,1.21680767 -0.00123475795,1.12672656 7.1347497e-05,0.931045775 C7.1347497e-05,0.805795383 0.0075814538,0.71993826 0.0213771926,0.656578458 C0.111498468,0.268063497 0.415576142,0.00204415425 0.768387875,0.00351336705 C0.979895325,0.00489075406 1.15377061,0.0893704902 1.30144216,0.26668611 C1.44037913,0.43132977 1.50666398,0.621409177 1.50666398,0.856483225 C1.50666398,1.00992414 1.49164376,1.09293466 1.42911397,1.26464891 C1.31025837,1.59962943 1.34152327,1.84030485 1.53294935,2.05288158 C1.63556026,2.16692922 1.78943581,2.25701033 1.97718846,2.31192216 C2.14363528,2.36123261 2.45391695,2.37381275 2.63040445,2.34011268 C2.97954276,2.27252889 3.21978453,2.09236667 3.29733454,1.84324327 C3.34484413,1.69264896 3.32484439,1.46602289 3.2522739,1.32387655 C3.14966299,1.12397178 3.12337762,0.849504464 3.188438,0.63555035 C3.23602922,0.480732051 3.29227338,0.382202967 3.40116992,0.265400549 C3.65765638,-0.00768938057 4.0706306,-0.0710491827 4.40972822,0.11058225 C4.49731892,0.157046105 4.53486945,0.189368787 4.62246015,0.289367083 C4.78637638,0.47659989 4.85143676,0.65391551 4.85143676,0.910109492 C4.85143676,1.05372504 4.81519233,1.20431936 4.75380537,1.32396837 C4.68245936,1.46189073 4.66123515,1.67869144 4.70498968,1.83213235 C4.75380537,2.00944797 4.9102115,2.17280607 5.11665779,2.26004058 C5.3068594,2.34167372 5.36694025,2.35296829 5.6484876,2.35149908 C5.88628043,2.35149908 5.91379027,2.34865248 6.02889081,2.3134832 C6.21786795,2.25581659 6.37051902,2.16711287 6.47312993,2.05306523 C6.66210706,1.8433351 6.69590254,1.59843569 6.58072036,1.27603531 C6.51443551,1.0944957 6.4994153,1.01846394 6.4994153,0.867869624 C6.4994153,0.627194202 6.5619451,0.438584008 6.69590254,0.275317736 C6.98373553,-0.0751813437 7.43417864,-0.093454678 7.76576616,0.234455255 C7.91090713,0.376601593 7.98600819,0.580730347 7.99727335,0.860799038 C8.00355898,1.00441459 7.99980393,1.04803184 7.97727361,1.1493157 C7.91221323,1.44352557 7.76209274,1.63066655 7.51050418,1.73488883 C7.47548423,1.75040739 7.38536295,1.76161014 7.25646667,1.76868072 C7.10006054,1.7771287 7.04120417,1.78557667 6.98618447,1.80954321 C6.79345229,1.89255373 6.70463712,2.04323987 6.67337222,2.3402045 C6.65206637,2.54993463 6.69459643,3.01016554 6.75598339,3.22696626 C6.82104377,3.45643893 6.82855387,3.79702082 6.77598313,4.02502429 C6.69092301,4.38957271 6.47696661,4.68800656 6.18039905,4.85549682 C5.79126126,5.07367493 5.35706283,5.04126042 4.99788383,4.7667931 C4.91657877,4.7034333 4.77266227,4.54301363 4.721316,4.45568729 C4.6574801,4.35008762 4.39846306,4.03484965 4.31960695,3.97148985 C4.2045064,3.87580736 4.12687476,3.84761684 3.98426437,3.85468743 C3.84157235,3.8602888 3.77275692,3.89270331 3.64639122,4.01235233 C3.55757605,4.09536285 3.34353802,4.35862742 3.28598775,4.45577912 C3.23464148,4.54163624 3.08950051,4.70352512 3.00819545,4.76688493 C2.77546378,4.94539428 2.47767174,5.02987402 2.21359355,4.99048075 Z M4.20197582,3.53366443 C4.54735908,3.43375796 4.78760085,3.08601365 4.78882533,2.68344935 C4.7900498,2.44984451 4.71625484,2.24424654 4.57111388,2.07115491 C4.46352344,1.94443531 4.38964685,1.8896153 4.26205668,1.84168224 C4.17822103,1.81073694 4.14442555,1.80504374 4.00303964,1.80504374 C3.86165372,1.80504374 3.82785825,1.81064511 3.7440226,1.84168224 C3.61643243,1.88952348 3.54255584,1.94443531 3.43741435,2.06830831 C3.21839679,2.32872628 3.15709147,2.67353216 3.27227364,3.00713529 C3.35863987,3.25625869 3.56508616,3.46323404 3.79781782,3.5335726 C3.89038804,3.56176312 4.10434444,3.56176312 4.20197582,3.53366443 Z" id="Shape"></path>
        </g>
    </g>
</svg>