<?xml version="1.0" encoding="UTF-8"?>
<svg width="16px" height="16px" viewBox="0 0 16 16" version="1.1" xmlns="http://www.w3.org/2000/svg" xmlns:xlink="http://www.w3.org/1999/xlink">
    <!-- Generator: Sketch 52.5 (67469) - http://www.bohemiancoding.com/sketch -->
    <title>mendeley-merge-16</title>
    <desc>Created with Sketch.</desc>
    <g id="mendeley-merge-16" stroke="none" stroke-width="1" fill="none" fill-rule="evenodd">
        <g id="merge" transform="translate(2.000000, 2.000000)" fill="#000000" fill-rule="nonzero">
            <path d="M0,0 L0,4 L6,4 L6,8 L0,8 L0,12 L7,12 L7,8 L13,8 L13,4 L7,4 L7,0 L0,0 Z M1,1 L6,1 L6,3 L1,3 L1,1 Z M7,5 L12,5 L12,7 L7,7 L7,5 Z M1,9 L6,9 L6,11 L1,11 L1,9 Z" id="Shape"></path>
        </g>
    </g>
</svg>